<svg xmlns="http://www.w3.org/2000/svg" width="18" height="16" viewBox="0 0 18 16" fill="none">
  <path fill-rule="evenodd" clip-rule="evenodd" d="M7.27086 15.3043C6.70411 15.4681 6.09084 15.5508 5.44736 15.5508C4.73078 15.5508 4.04198 15.4687 3.39971 15.3061C2.15686 14.9926 1.23847 14.398 0.809484 13.6319C0.624597 13.3008 0.530945 12.9479 0.530945 12.5824C0.530945 12.206 0.620971 11.8241 0.798607 11.4459C1.47955 9.99457 3.27464 9.01817 5.26308 9.01817H5.31988C5.15855 8.73359 5.08061 8.43874 5.08061 8.12878C5.08061 7.97471 5.10115 7.81762 5.14224 7.6575C3.05652 7.61038 1.49586 6.08294 1.49586 4.06913C1.49586 2.64743 2.63237 1.26199 4.25768 0.702497C4.74407 0.534528 5.24012 0.44873 5.72771 0.44873H10.188C10.3396 0.44873 10.4744 0.547216 10.5215 0.691621C10.5686 0.835422 10.5166 0.993724 10.394 1.08254L9.39645 1.80457C9.33663 1.84686 9.26473 1.86982 9.19042 1.86982H8.83333C9.29434 2.42267 9.56442 3.21116 9.56442 4.09632C9.56442 5.07332 9.07018 5.99715 8.17052 6.70105C7.47568 7.24241 7.44849 7.39165 7.44849 7.7004C7.45695 7.87018 7.94092 8.42424 8.47504 8.80187C9.7191 9.68159 10.1819 10.545 10.1819 11.9854C10.1813 13.4905 9.03876 14.7907 7.27086 15.3043ZM17.3436 7.65388C17.3436 7.84722 17.1859 8.00432 16.9931 8.00432H14.4585V10.5402C14.4585 10.7335 14.3008 10.8906 14.1093 10.8906H13.3872C13.1927 10.8906 13.0356 10.7335 13.0356 10.5402V8.00432H10.5027C10.3094 8.00432 10.1523 7.84843 10.1523 7.65388V6.93306C10.1523 6.73972 10.3094 6.58141 10.5027 6.58141H13.0356V4.04798C13.0356 3.85403 13.1927 3.69754 13.3872 3.69754H14.1093C14.3008 3.69754 14.4585 3.85403 14.4585 4.04798V6.58141H16.9925C17.1853 6.58141 17.343 6.73851 17.343 6.93185L17.3436 7.65388ZM6.81793 10.3685L6.81791 10.3684C6.77569 10.3394 6.73281 10.31 6.68907 10.2804C6.38516 10.1873 6.06251 10.139 5.73201 10.1348H5.69213C4.17316 10.1348 2.84149 11.0538 2.84149 12.1027C2.84149 13.2446 3.98284 14.137 5.43897 14.137C7.35974 14.137 8.33312 13.4736 8.33312 12.1685C8.33312 12.0453 8.31861 11.9172 8.2878 11.7885C8.15839 11.2841 7.69683 10.9686 6.99866 10.4913L6.99057 10.4858C6.934 10.4482 6.87661 10.4088 6.81793 10.3685ZM5.91492 6.50529H5.91371H5.89981C4.9349 6.47508 3.97059 5.33494 3.79778 4.01536C3.70171 3.27762 3.857 2.6142 4.22375 2.19549C4.45999 1.92481 4.77116 1.78101 5.11978 1.78101L5.15906 1.78221C6.14452 1.81061 7.08889 2.91026 7.26109 4.23106C7.35897 4.97 7.19402 5.66605 6.82183 6.0902C6.58438 6.36209 6.27805 6.50529 5.91492 6.50529Z" fill="#222222"/>
</svg>

