<svg xmlns="http://www.w3.org/2000/svg" width="70" height="251" viewBox="0 0 70 251" fill="none">
  <g opacity="0.3" clip-path="url(#clip0_406_1157)">
    <path opacity="0.3" fill-rule="evenodd" clip-rule="evenodd" d="M2.97354 0.804443L5.5637 8.77706H13.9471L7.16523 13.7044L9.75539 21.678L2.97354 16.7506L-3.80831 21.678L-1.21815 13.7044L-8 8.77706H0.383387L2.97354 0.804443Z" stroke="#222222" stroke-width="2" stroke-linecap="round" stroke-linejoin="round"/>
    <g opacity="0.3">
      <path d="M66.9738 90.3703C67.9934 90.3703 68.82 89.5437 68.82 88.5241C68.82 87.5045 67.9934 86.678 66.9738 86.678C65.9542 86.678 65.1277 87.5045 65.1277 88.5241C65.1277 89.5437 65.9542 90.3703 66.9738 90.3703Z" fill="#222222"/>
      <path d="M61.4355 90.3703C62.4551 90.3703 63.2817 89.5437 63.2817 88.5241C63.2817 87.5045 62.4551 86.678 61.4355 86.678C60.4159 86.678 59.5894 87.5045 59.5894 88.5241C59.5894 89.5437 60.4159 90.3703 61.4355 90.3703Z" fill="#222222"/>
      <path d="M55.8969 90.3703C56.9165 90.3703 57.7431 89.5437 57.7431 88.5241C57.7431 87.5045 56.9165 86.678 55.8969 86.678C54.8773 86.678 54.0508 87.5045 54.0508 88.5241C54.0508 89.5437 54.8773 90.3703 55.8969 90.3703Z" fill="#222222"/>
    </g>
    <rect opacity="0.3" x="25.1279" y="155.37" width="14.7692" height="14.7692" rx="7.38461" stroke="#222222" stroke-width="2"/>
    <g opacity="0.3">
      <path d="M18.0508 250.985C19.0704 250.985 19.8969 250.159 19.8969 249.139C19.8969 248.12 19.0704 247.293 18.0508 247.293C17.0312 247.293 16.2046 248.12 16.2046 249.139C16.2046 250.159 17.0312 250.985 18.0508 250.985Z" fill="#222222"/>
      <path d="M6.97384 250.985C7.99344 250.985 8.81999 250.159 8.81999 249.139C8.81999 248.12 7.99344 247.293 6.97384 247.293C5.95424 247.293 5.12769 248.12 5.12769 249.139C5.12769 250.159 5.95424 250.985 6.97384 250.985Z" fill="#222222"/>
    </g>
  </g>
  <defs>
    <clipPath id="clip0_406_1157">
      <rect width="70" height="250" fill="white" transform="translate(0 0.804443)"/>
    </clipPath>
  </defs>
</svg>