<svg xmlns="http://www.w3.org/2000/svg" width="14" height="14" viewBox="0 0 14 14" fill="none">
  <path fill-rule="evenodd" clip-rule="evenodd" d="M7.10912 1.32632C7.49322 0.957898 8.11355 0.957898 8.49765 1.32632L13.7092 6.32524C14.0969 6.69717 14.0969 7.30282 13.7092 7.67475L8.49778 12.6737C8.30509 12.8583 8.05342 12.95 7.80352 12.95C7.55363 12.95 7.30193 12.8584 7.10928 12.6737C6.72154 12.3018 6.72151 11.6961 7.10925 11.3242L10.6257 7.95108H0.985036C0.447111 7.95108 0 7.53109 0 6.99999C0 6.46883 0.44712 6.04891 0.985036 6.04891H10.6257L7.10912 2.67582C6.72138 2.3039 6.72138 1.69824 7.10912 1.32632Z" fill="#381DDB"/>
</svg>