<svg xmlns="http://www.w3.org/2000/svg" width="70" height="70" viewBox="0 0 70 70" fill="none">
  <g clip-path="url(#clip0_406_2310)">
    <path d="M49.6772 19.1935H51.9353V21.4516H49.6772V19.1935Z" fill="white"/>
    <path d="M4.51654 46.2904H6.77461V48.5484H4.51654V46.2904Z" fill="white"/>
    <path d="M64.3549 19.1935H56.3375C55.8127 16.6206 53.5331 14.6773 50.8065 14.6773C48.0798 14.6773 45.8003 16.6206 45.2754 19.1935H41.3872C39.8795 19.1935 38.4616 19.7817 37.3959 20.8473L34.3958 23.8463C33.7646 24.4775 32.8919 24.8386 31.9999 24.8386H30.4839V19.1935H31.6129C32.8583 19.1935 33.871 18.1808 33.871 16.9354V5.64508C33.871 4.39973 32.8583 3.38702 31.6129 3.38702H6.77422C5.52887 3.38702 4.51616 4.39973 4.51616 5.64508V16.9354C4.51616 18.1808 5.52887 19.1935 6.77422 19.1935H7.90326V25.3171C5.91257 26.1915 4.51616 28.175 4.51616 30.4838V41.8882C1.94331 42.4131 3.05176e-05 44.6937 3.05176e-05 47.4193C3.05176e-05 50.1448 1.94331 52.4255 4.51616 52.9503V58.7096C4.51616 61.8222 7.04876 64.3548 10.1613 64.3548H20.3226C20.3226 65.6001 21.3353 66.6128 22.5807 66.6128H36.1291C37.3744 66.6128 38.3871 65.6001 38.3871 64.3548H44.0323C47.1448 64.3548 49.6774 61.8222 49.6774 58.7096V54.1935C49.6774 52.3263 51.1973 50.8064 53.0645 50.8064H58.7097V48.5483H53.0645C49.952 48.5483 47.4194 51.0809 47.4194 54.1935V58.7096C47.4194 60.5768 45.8995 62.0967 44.0323 62.0967H38.3871C38.3871 60.8513 37.3744 59.8386 36.1291 59.8386H35.8512L31.8792 45.938C31.56 44.8145 30.5214 44.0322 29.3549 44.0322C28.1883 44.0322 27.1497 44.8145 26.8305 45.938L22.8585 59.8386H22.5807C21.3353 59.8386 20.3226 60.8513 20.3226 62.0967H10.1613C8.29412 62.0967 6.77422 60.5768 6.77422 58.7096V52.9503C9.34707 52.4255 11.2904 50.1459 11.2904 47.4193C11.2904 44.6926 9.34707 42.4131 6.77422 41.8882V30.4838C6.77422 28.6166 8.29412 27.0967 10.1613 27.0967H14.6775V24.8386H10.1613V19.1935H28.2258V24.8386H16.9355V27.0967H31.9999C33.5077 27.0967 34.9256 26.5085 35.9912 25.4428L38.9913 22.4438C39.6226 21.8126 40.4952 21.4515 41.3872 21.4515H45.2754C45.8003 24.0244 48.0798 25.9677 50.8065 25.9677C53.5331 25.9677 55.8127 24.0244 56.3375 21.4515H64.3549C66.2221 21.4515 67.742 22.9714 67.742 24.8386V45.1612C67.742 47.0284 66.2221 48.5483 64.3549 48.5483H60.9678V50.8064H64.3549C67.4674 50.8064 70 48.2738 70 45.1612V24.8386C70 21.7261 67.4674 19.1935 64.3549 19.1935ZM29.0015 46.5565C29.0919 46.2439 29.6189 46.2439 29.7093 46.5565L33.5027 59.8386H25.2059L29.0015 46.5565ZM22.5807 62.0967H36.1291L36.1302 64.3548H22.5807V62.0967ZM9.03229 47.4193C9.03229 49.2865 7.51239 50.8064 5.64519 50.8064C3.77799 50.8064 2.2581 49.2865 2.2581 47.4193C2.2581 45.5521 3.77799 44.0322 5.64519 44.0322C7.51239 44.0322 9.03229 45.5521 9.03229 47.4193ZM27.0968 16.9354V12.4193H31.614L31.6151 16.9354H27.0968ZM18.0645 10.1612H13.5484V5.64508H18.0645V10.1612ZM20.3226 5.64508H24.8387V10.1612H20.3226V5.64508ZM18.0645 12.4193V16.9354H13.5484V12.4193H18.0645ZM20.3226 12.4193H24.8387V16.9354H20.3226V12.4193ZM31.614 10.1612H27.0968V5.64508H31.6129L31.614 10.1612ZM11.2904 5.64508V10.1612H6.77422V5.64508H11.2904ZM6.77422 12.4193H11.2904V16.9354H6.77422V12.4193ZM50.8065 23.7096C48.9393 23.7096 47.4194 22.1897 47.4194 20.3225C47.4194 18.4553 48.9393 16.9354 50.8065 16.9354C52.6737 16.9354 54.1936 18.4553 54.1936 20.3225C54.1936 22.1897 52.6737 23.7096 50.8065 23.7096Z" fill="white"/>
  </g>
  <defs>
    <clipPath id="clip0_406_2310">
      <rect width="70" height="70" fill="white"/>
    </clipPath>
  </defs>
</svg>